<svg width="302" height="102" viewBox="0 0 302 102" fill="none" xmlns="http://www.w3.org/2000/svg">
<g filter="url(#filter0_d_377_984)">
<path d="M25.56 8.8C28.2853 8.8 30.5067 8.856 32.224 8.968C33.9787 9.04266 35.3413 9.28533 36.312 9.696C37.2827 10.1067 37.9733 10.7973 38.384 11.768C38.7947 12.7387 39.0373 14.0827 39.112 15.8C39.224 17.5173 39.28 19.7573 39.28 22.52V27.84H22.48V21.12C22.48 20.56 22.424 20.2427 22.312 20.168C22.2373 20.056 21.92 20 21.36 20V35.12C21.36 35.68 21.3973 36.016 21.472 36.128C21.584 36.2027 21.92 36.24 22.48 36.24V28.96H39.28V34.28C39.28 37.0053 39.224 39.2453 39.112 41C39.0373 42.7173 38.7947 44.0613 38.384 45.032C37.9733 46.0027 37.2827 46.6933 36.312 47.104C35.3413 47.5147 33.9973 47.776 32.28 47.888C30.5627 47.9627 28.3227 48 25.56 48H18.28C15.5547 48 13.3147 47.9627 11.56 47.888C9.84267 47.776 8.49867 47.5147 7.528 47.104C6.55733 46.6933 5.86667 46.0027 5.456 45.032C5.04533 44.0613 4.784 42.7173 4.672 41C4.59733 39.2453 4.56 37.0053 4.56 34.28V22.52C4.56 19.7573 4.59733 17.5173 4.672 15.8C4.784 14.0827 5.04533 12.7387 5.456 11.768C5.86667 10.7973 6.55733 10.1067 7.528 9.696C8.49867 9.28533 9.84267 9.04266 11.56 8.968C13.3147 8.856 15.5547 8.8 18.28 8.8H25.56ZM40.3803 8.8H57.1803V14.4H61.3803C64.1056 14.4 66.327 14.456 68.0443 14.568C69.799 14.6427 71.1616 14.8853 72.1323 15.296C73.103 15.7067 73.7936 16.3973 74.2043 17.368C74.615 18.3387 74.8576 19.6827 74.9323 21.4C75.0443 23.1173 75.1003 25.3573 75.1003 28.12V48H58.3003V26.72C58.3003 26.272 58.2816 25.9733 58.2443 25.824C58.207 25.6747 58.039 25.6 57.7403 25.6H57.1803V48H40.3803V8.8ZM76.2006 28.12C76.2006 25.3947 76.238 23.1733 76.3126 21.456C76.4246 19.7013 76.686 18.3387 77.0966 17.368C77.5073 16.3973 78.198 15.7067 79.1686 15.296C80.1393 14.8853 81.4833 14.6427 83.2006 14.568C84.9553 14.456 87.1953 14.4 89.9206 14.4H97.2006C99.926 14.4 102.147 14.456 103.865 14.568C105.619 14.6427 106.982 14.8853 107.953 15.296C108.923 15.7067 109.614 16.3973 110.025 17.368C110.435 18.3387 110.678 19.6827 110.753 21.4C110.865 23.1173 110.921 25.3573 110.921 28.12V41.28H93.0006V42.4H110.921V48L84.6006 47.944C82.51 47.8693 80.886 47.664 79.7286 47.328C78.5713 46.9547 77.7313 46.3013 77.2086 45.368C76.7233 44.4347 76.4246 43.0907 76.3126 41.336C76.238 39.544 76.2006 37.192 76.2006 34.28V28.12ZM93.0006 25.6V31.2H94.1206V26.72C94.1206 26.16 94.0646 25.8427 93.9526 25.768C93.878 25.656 93.5606 25.6 93.0006 25.6ZM133.021 14.4C135.746 14.4 137.968 14.456 139.685 14.568C141.44 14.6427 142.802 14.8853 143.773 15.296C144.744 15.7067 145.434 16.3973 145.845 17.368C146.256 18.3387 146.498 19.6827 146.573 21.4C146.685 23.1173 146.741 25.3573 146.741 28.12V30.08H129.941V26.72C129.941 26.16 129.885 25.8427 129.773 25.768C129.698 25.656 129.381 25.6 128.821 25.6V35.12C128.821 35.68 128.858 36.016 128.933 36.128C129.045 36.2027 129.381 36.24 129.941 36.24V31.2H146.741V34.28C146.741 37.0053 146.685 39.2453 146.573 41C146.498 42.7173 146.256 44.0613 145.845 45.032C145.434 46.0027 144.744 46.6933 143.773 47.104C142.802 47.5147 141.458 47.776 139.741 47.888C138.024 47.9627 135.784 48 133.021 48H125.741C123.016 48 120.776 47.9627 119.021 47.888C117.304 47.776 115.96 47.5147 114.989 47.104C114.018 46.6933 113.328 46.0027 112.917 45.032C112.506 44.0613 112.245 42.7173 112.133 41C112.058 39.2453 112.021 37.0053 112.021 34.28V28.12C112.021 25.3947 112.058 23.1733 112.133 21.456C112.245 19.7013 112.506 18.3387 112.917 17.368C113.328 16.3973 114.018 15.7067 114.989 15.296C115.96 14.8853 117.304 14.6427 119.021 14.568C120.776 14.456 123.016 14.4 125.741 14.4H133.021ZM147.294 48V8.8H150.374C153.1 8.8 155.321 8.856 157.038 8.968C158.793 9.04266 160.156 9.28533 161.126 9.696C162.097 10.1067 162.788 10.7973 163.198 11.768C163.609 12.7387 163.852 14.0827 163.926 15.8C164.038 17.5173 164.094 19.7573 164.094 22.52V31.2C164.654 31.2 164.972 31.1627 165.046 31.088C165.158 30.976 165.214 30.64 165.214 30.08V14.456H182.014V41H170.814C170.814 41.56 170.852 41.896 170.926 42.008C171.038 42.0827 171.374 42.12 171.934 42.12H182.014V48H165.214V41C164.654 41 164.318 41.056 164.206 41.168C164.132 41.2427 164.094 41.56 164.094 42.12V48H147.294ZM32.56 73.28H22.48C21.92 73.28 21.6027 73.336 21.528 73.448C21.4533 73.5227 21.416 73.84 21.416 74.4H32.56V88.4H21.36V94H4.56V68.52C4.56 65.7573 4.59733 63.5173 4.672 61.8C4.784 60.0827 5.04533 58.7387 5.456 57.768C5.86667 56.7973 6.55733 56.1067 7.528 55.696C8.49867 55.2853 9.84267 55.0427 11.56 54.968C13.3147 54.856 15.5547 54.8 18.28 54.8H32.56V73.28ZM54.6538 60.4C57.3791 60.4 59.6004 60.456 61.3178 60.568C63.0724 60.6427 64.4351 60.8853 65.4058 61.296C66.3764 61.7067 67.0671 62.3973 67.4778 63.368C67.8884 64.3387 68.1311 65.6827 68.2058 67.4C68.3178 69.1173 68.3738 71.3573 68.3738 74.12V80.28C68.3738 83.0053 68.3178 85.2453 68.2058 87C68.1311 88.7173 67.8884 90.0613 67.4778 91.032C67.0671 92.0027 66.3764 92.6933 65.4058 93.104C64.4351 93.5147 63.0911 93.776 61.3737 93.888C59.6564 93.9627 57.4164 94 54.6538 94H47.3738C44.6484 94 42.4084 93.9627 40.6538 93.888C38.9364 93.776 37.5924 93.5147 36.6218 93.104C35.6511 92.6933 34.9604 92.0027 34.5498 91.032C34.1391 90.0613 33.8778 88.7173 33.7658 87C33.6911 85.2453 33.6538 83.0053 33.6538 80.28V74.12C33.6538 71.3947 33.6911 69.1733 33.7658 67.456C33.8778 65.7013 34.1391 64.3387 34.5498 63.368C34.9604 62.3973 35.6511 61.7067 36.6218 61.296C37.5924 60.8853 38.9364 60.6427 40.6538 60.568C42.4084 60.456 44.6484 60.4 47.3738 60.4H54.6538ZM50.4538 71.6V76.08C50.4538 76.64 50.4911 76.976 50.5658 77.088C50.6778 77.1627 51.0138 77.2 51.5738 77.2V72.72C51.5738 72.16 51.5178 71.8427 51.4058 71.768C51.3311 71.656 51.0138 71.6 50.4538 71.6ZM86.2741 94H83.1941C80.4687 94 78.2287 93.9627 76.4741 93.888C74.7567 93.776 73.4127 93.5147 72.4421 93.104C71.4714 92.6933 70.7807 92.0027 70.3701 91.032C69.9594 90.0613 69.6981 88.7173 69.5861 87C69.5114 85.2453 69.4741 83.0053 69.4741 80.28V54.8H86.2741V94ZM104.212 94H101.132C98.4062 94 96.1662 93.9627 94.4116 93.888C92.6942 93.776 91.3502 93.5147 90.3796 93.104C89.4089 92.6933 88.7182 92.0027 88.3076 91.032C87.8969 90.0613 87.6356 88.7173 87.5236 87C87.4489 85.2453 87.4116 83.0053 87.4116 80.28V54.8H104.212V94ZM126.349 60.4C129.074 60.4 131.296 60.456 133.013 60.568C134.768 60.6427 136.13 60.8853 137.101 61.296C138.072 61.7067 138.762 62.3973 139.173 63.368C139.584 64.3387 139.826 65.6827 139.901 67.4C140.013 69.1173 140.069 71.3573 140.069 74.12V80.28C140.069 83.0053 140.013 85.2453 139.901 87C139.826 88.7173 139.584 90.0613 139.173 91.032C138.762 92.0027 138.072 92.6933 137.101 93.104C136.13 93.5147 134.786 93.776 133.069 93.888C131.352 93.9627 129.112 94 126.349 94H119.069C116.344 94 114.104 93.9627 112.349 93.888C110.632 93.776 109.288 93.5147 108.317 93.104C107.346 92.6933 106.656 92.0027 106.245 91.032C105.834 90.0613 105.573 88.7173 105.461 87C105.386 85.2453 105.349 83.0053 105.349 80.28V74.12C105.349 71.3947 105.386 69.1733 105.461 67.456C105.573 65.7013 105.834 64.3387 106.245 63.368C106.656 62.3973 107.346 61.7067 108.317 61.296C109.288 60.8853 110.632 60.6427 112.349 60.568C114.104 60.456 116.344 60.4 119.069 60.4H126.349ZM122.149 71.6V76.08C122.149 76.64 122.186 76.976 122.261 77.088C122.373 77.1627 122.709 77.2 123.269 77.2V72.72C123.269 72.16 123.213 71.8427 123.101 71.768C123.026 71.656 122.709 71.6 122.149 71.6ZM177.009 77.2V60.4H193.809V94H154.889C152.164 94 149.924 93.9627 148.169 93.888C146.452 93.776 145.108 93.5147 144.137 93.104C143.167 92.6933 142.476 92.0027 142.065 91.032C141.655 90.0613 141.393 88.7173 141.281 87C141.207 85.2453 141.169 83.0053 141.169 80.28V60.4H157.969V76.08C157.969 76.64 158.007 76.976 158.081 77.088C158.193 77.1627 158.529 77.2 159.089 77.2V60.4H175.889V76.08C175.889 76.64 175.927 76.976 176.001 77.088C176.113 77.1627 176.449 77.2 177.009 77.2ZM194.927 74.12C194.927 71.3947 194.965 69.1733 195.039 67.456C195.151 65.7013 195.413 64.3387 195.823 63.368C196.234 62.3973 196.925 61.7067 197.895 61.296C198.866 60.8853 200.21 60.6427 201.927 60.568C203.682 60.456 205.922 60.4 208.647 60.4H215.927C218.653 60.4 220.874 60.456 222.591 60.568C224.346 60.6427 225.709 60.8853 226.679 61.296C227.65 61.7067 228.341 62.3973 228.751 63.368C229.162 64.3387 229.405 65.6827 229.479 67.4C229.591 69.1173 229.647 71.3573 229.647 74.12V87.28H211.727V88.4H229.647V94L203.327 93.944C201.237 93.8693 199.613 93.664 198.455 93.328C197.298 92.9547 196.458 92.3013 195.935 91.368C195.45 90.4347 195.151 89.0907 195.039 87.336C194.965 85.544 194.927 83.192 194.927 80.28V74.12ZM211.727 71.6V77.2H212.847V72.72C212.847 72.16 212.791 71.8427 212.679 71.768C212.605 71.656 212.287 71.6 211.727 71.6ZM230.748 60.4H251.748C254.473 60.4 256.694 60.456 258.412 60.568C260.166 60.6427 261.529 60.8853 262.5 61.296C263.47 61.7067 264.161 62.3973 264.572 63.368C264.982 64.3387 265.225 65.6827 265.3 67.4C265.412 69.1173 265.468 71.3573 265.468 74.12V87.28H248.668V78.32C248.668 77.76 248.612 77.4427 248.5 77.368C248.425 77.256 248.108 77.2 247.548 77.2V94H230.748V60.4ZM266.568 60.4H297.928V70.48H276.984C276.984 71.04 277.021 71.376 277.096 71.488C277.17 71.5627 277.488 71.6 278.048 71.6H297.928V80.28C297.928 83.0053 297.872 85.2453 297.76 87C297.685 88.7173 297.442 90.0613 297.032 91.032C296.621 92.0027 295.93 92.6933 294.96 93.104C293.989 93.5147 292.645 93.776 290.928 93.888C289.21 93.9627 286.97 94 284.208 94H266.568V78.32H286.448C287.008 78.32 287.325 78.2827 287.4 78.208C287.474 78.096 287.512 77.76 287.512 77.2H266.568V60.4Z" fill="#FFD700"/>
</g>
<g filter="url(#filter1_d_377_984)">
<rect x="167.5" y="9.5" width="63" height="63.8" rx="31.5" stroke="#FFD700" shape-rendering="crispEdges"/>
<path d="M219.68 53.2248C219.278 53.1503 218.896 53.3966 218.815 53.7838C217.997 57.7221 214.822 60.3683 210.917 60.3683C207.23 60.3683 203.99 58.0062 202.889 54.642H205.602V53.2104H200.469V58.221H201.935V56.1824C203.526 59.533 207.006 61.7999 210.917 61.7999C215.54 61.7999 219.292 58.6927 220.253 54.0687C220.334 53.6807 220.077 53.3035 219.68 53.2248Z" fill="#FFD700"/>
<path d="M219.535 44.621V47.7046C217.885 44.5165 214.619 42.4736 210.919 42.4736C206.439 42.4736 202.456 45.3346 201.232 49.4318C201.12 49.8112 201.342 50.2084 201.732 50.3187C202.121 50.4289 202.528 50.2106 202.64 49.8312C203.666 46.3976 207.147 43.9052 210.919 43.9052C214.266 43.9052 217.197 45.8851 218.493 48.9157H215.136V50.3473H221.002V44.621H219.535Z" fill="#FFD700"/>
<path d="M198.716 48.8836C198.837 48.4455 198.981 48.0167 199.146 47.598C199.15 47.5894 199.153 47.5801 199.156 47.5708C199.324 47.1499 199.514 46.7398 199.728 46.3425C201.874 42.347 206.159 39.6105 211.091 39.6105C211.341 39.6105 211.584 39.6334 211.83 39.647C211.868 39.5425 211.914 39.4423 211.951 39.3364C212.986 38.8733 213.657 37.8747 213.657 36.7474V33.8842C213.657 33.1949 213.393 32.5271 212.924 32.0053V28.198C212.965 27.8043 213.127 25.4608 211.39 23.5275C209.885 21.8504 207.441 21 204.126 21C200.812 21 198.368 21.8504 196.862 23.5267C195.81 24.6985 195.456 26.0184 195.349 26.9661C194.093 26.3319 192.612 26.0105 190.93 26.0105C183.313 26.0105 182.87 32.3488 182.865 32.4526V35.7302C182.39 36.2356 182.132 36.8189 182.132 37.398V39.8704C182.132 40.6427 182.486 41.3628 183.093 41.8495C183.698 44.0756 185.186 45.7577 185.765 46.3482V48.3117C185.765 48.875 185.451 49.3918 184.906 49.6824L180.029 52.6694C178.161 53.6643 177 55.5733 177 57.6506V60.3684H187.264H188.73H201.445C199.469 58.1645 198.261 55.2884 198.261 52.1368C198.261 51.0102 198.428 49.9229 198.716 48.8836ZM187.264 58.9368H178.466V57.6506C178.466 56.0973 179.334 54.67 180.731 53.9263L180.77 53.9055L180.808 53.8826L185.653 50.915C186.642 50.3681 187.231 49.3989 187.231 48.3124V46.349V45.7735L186.824 45.3583C186.415 44.941 185.039 43.4271 184.51 41.4823L184.389 41.0357L184.024 40.7429C183.753 40.5267 183.598 40.2082 183.598 39.8704V37.398C183.598 37.1847 183.721 36.9363 183.946 36.698L184.331 36.2878V35.7302V32.5049C184.389 31.8456 184.992 27.4421 190.93 27.4421C192.683 27.4421 194.162 27.8372 195.329 28.6189V32.0045C194.854 32.5278 194.596 33.1834 194.596 33.8842V36.7474C194.596 36.965 194.621 37.179 194.67 37.3866C194.815 38.0072 195.173 38.5648 195.691 38.9713L195.693 38.9735C195.697 38.9899 195.703 39.0042 195.707 39.0207C195.747 39.1725 195.792 39.3299 195.848 39.5117L195.902 39.6828C195.91 39.7086 195.92 39.7308 195.928 39.7565C195.974 39.8976 196.022 40.0328 196.072 40.1688C196.095 40.2318 196.116 40.3005 196.14 40.3621C196.184 40.4781 196.225 40.579 196.266 40.6799C196.302 40.7658 196.337 40.8488 196.373 40.9326C196.401 40.9956 196.428 41.0614 196.456 41.123L196.459 41.1216C196.472 41.1516 196.486 41.181 196.5 41.211L196.497 41.2125C196.515 41.2518 196.533 41.2876 196.552 41.3263C196.623 41.4802 196.695 41.6298 196.768 41.7736C196.78 41.798 196.791 41.8245 196.804 41.8481C196.824 41.886 196.843 41.9175 196.862 41.9547C196.977 42.173 197.09 42.3778 197.202 42.5703C197.215 42.5925 197.227 42.6133 197.24 42.6354C197.662 43.3491 198.047 43.8809 198.26 44.1529L198.261 46.0004C197.935 46.6503 197.66 47.3367 197.437 48.049C197.374 48.0926 197.321 48.1456 197.252 48.1821L190.711 51.6651C190.53 51.7618 190.364 51.8756 190.194 51.9865C190.115 52.0381 190.029 52.0817 189.953 52.1368C189.94 52.1461 189.929 52.1583 189.916 52.1676C188.262 53.3759 187.264 55.2813 187.264 57.3349V58.9368Z" fill="#FFD700"/>
</g>
<defs>
<filter id="filter0_d_377_984" x="0.5625" y="8.7998" width="301.367" height="93.2002" filterUnits="userSpaceOnUse" color-interpolation-filters="sRGB">
<feFlood flood-opacity="0" result="BackgroundImageFix"/>
<feColorMatrix in="SourceAlpha" type="matrix" values="0 0 0 0 0 0 0 0 0 0 0 0 0 0 0 0 0 0 127 0" result="hardAlpha"/>
<feOffset dy="4"/>
<feGaussianBlur stdDeviation="2"/>
<feComposite in2="hardAlpha" operator="out"/>
<feColorMatrix type="matrix" values="0 0 0 0 1 0 0 0 0 1 0 0 0 0 1 0 0 0 0.25 0"/>
<feBlend mode="normal" in2="BackgroundImageFix" result="effect1_dropShadow_377_984"/>
<feBlend mode="normal" in="SourceGraphic" in2="effect1_dropShadow_377_984" result="shape"/>
</filter>
<filter id="filter1_d_377_984" x="163" y="9" width="72" height="72.7998" filterUnits="userSpaceOnUse" color-interpolation-filters="sRGB">
<feFlood flood-opacity="0" result="BackgroundImageFix"/>
<feColorMatrix in="SourceAlpha" type="matrix" values="0 0 0 0 0 0 0 0 0 0 0 0 0 0 0 0 0 0 127 0" result="hardAlpha"/>
<feOffset dy="4"/>
<feGaussianBlur stdDeviation="2"/>
<feComposite in2="hardAlpha" operator="out"/>
<feColorMatrix type="matrix" values="0 0 0 0 1 0 0 0 0 1 0 0 0 0 1 0 0 0 0.25 0"/>
<feBlend mode="normal" in2="BackgroundImageFix" result="effect1_dropShadow_377_984"/>
<feBlend mode="normal" in="SourceGraphic" in2="effect1_dropShadow_377_984" result="shape"/>
</filter>
</defs>
</svg>
